<svg xmlns="http://www.w3.org/2000/svg">
<defs>
<font
       horiz-adv-x="1024"
       id="font3933"
       inkscape:label="font 1">
      <font-face
         units-per-em="1024"
         id="font-face3935"
         font-family="Jn2" />
      <missing-glyph
         d="M0,0h1000v1024h-1000z"
         id="missing-glyph3937" />
      <glyph
         glyph-name="glyph 1"
         id="glyph4949"
         unicode="a"
         d="M 500,1000 C 224.33784,1000 0,775.6625 0,500 0,224.33751 224.33784,0 500,0 c 275.66216,0 500,224.33751 500,500 0,275.6625 -224.33784,500 -500,500 z m 0,-81.08203 C 731.84271,918.91797 918.91797,731.84375 918.91797,500 918.91797,268.15626 731.84271,81.08203 500,81.08203 268.1573,81.08203 81.082031,268.15626 81.082031,500 81.082031,731.84375 268.1573,918.91797 500,918.91797 Z m -54.5957,-147.29883 0,-221.62109 -209.18946,0 0,-98.91797 209.18946,0 0,-222.70313 108.10742,0 0,222.70313 210.27148,0 0,98.91797 -210.27148,0 0,221.62109 -108.10742,0 z" />
      <glyph
         glyph-name="glyph 2"
         id="glyph5054"
         unicode="b"
         d="m 510.4203,981.21997 c -103.59013,0 -183.72614,-79.15875 -183.72614,-183.72614 l 0,-122.1577 -67.43231,0 c -24.43164,0 -48.8618,-18.56798 -54.72538,-42.99961 L 143.94531,57.70461 c 0,-11.72718 5.86439,-30.29491 18.56884,-37.13577 C 168.37774,8.84165 186.94547,2 199.64992,2 l 623.49537,0 c 18.56803,0 30.29516,11.72798 42.99961,18.56884 12.70445,6.84086 11.7277,24.43132 11.7277,37.13577 l -62.54577,575.60922 c 0,24.43164 -24.43182,42.99961 -48.86346,42.99961 l -73.29423,0 0,121.18039 C 694.1464,902.06122 614.01045,981.21997 510.4203,981.21997 Z m 0,-61.56845 c 67.43132,0 122.1577,-54.72638 122.1577,-122.15769 l 0,-122.1577 -244.31539,0 0,122.1577 c 0,67.43131 54.72638,122.15769 122.15769,122.15769 z M 266.103,614.74499 l 488.63269,0 60.59114,-549.22383 -603.85359,0 54.62976,549.22383 z" />
      <glyph
         glyph-name="glyph 3"
         id="glyph5167"
         unicode="c"
         d="m 53.875,828.5625 0,-554.91211 110.98242,0 0,554.91211 -110.98242,0 z m 166.47461,0 0,-554.91211 55.49023,0 0,554.91211 -55.49023,0 z m 110.98242,0 0,-554.91211 55.49024,0 0,554.91211 -55.49024,0 z m 110.98242,0 0,-554.91211 27.74414,0 0,554.91211 -27.74414,0 z m 55.49024,0 0,-554.91211 55.49219,0 0,554.91211 -55.49219,0 z m 110.98242,0 0,-554.91211 27.74609,0 0,554.91211 -27.74609,0 z m 110.98242,0 0,-554.91211 55.49219,0 0,554.91211 -55.49219,0 z m 83.23633,0 0,-554.91211 27.74609,0 0,554.91211 -27.74609,0 z m 83.23828,0 0,-554.91211 55.49024,0 0,554.91211 -55.49024,0 z M 53.875,218.16016 l 0,-55.49024 55.49219,0 0,55.49024 -55.49219,0 z m 166.47461,0 0,-55.49024 55.49023,0 0,55.49024 -55.49023,0 z m 110.98242,0 0,-55.49024 55.49024,0 0,55.49024 -55.49024,0 z m 110.98242,0 0,-55.49024 110.98243,0 0,55.49024 -110.98243,0 z m 166.47266,0 0,-55.49024 55.49219,0 0,55.49024 -55.49219,0 z m 110.98242,0 0,-55.49024 110.98242,0 0,55.49024 -110.98242,0 z m 166.47461,0 0,-55.49024 55.49024,0 0,55.49024 -55.49024,0 z" />
      <glyph
         glyph-name="glyph 4"
         id="glyph5188"
         unicode="d"
         d="m 80.580078,975.08008 c -35.752808,0 -65.005859,-29.25496 -65.005859,-65.00586 l 0,-325.02734 c 0,-35.75293 29.253051,-65 65.005859,-65 l 325.027342,0 c 35.75281,0 65.00586,29.24706 65.00586,65 l 0,325.02734 c 0,35.7509 -29.25305,65.00586 -65.00586,65.00586 l -325.027342,0 z m 520.042972,0 c -35.75281,0 -65.00586,-29.25496 -65.00586,-65.00586 l 0,-845.06641 C 535.61719,29.25488 564.87024,0 600.62305,0 l 325.02734,0 c 35.75281,0 65.00391,29.25488 65.00391,65.00781 l 0,845.06641 c 0,35.7509 -29.2511,65.00586 -65.00391,65.00586 l -325.02734,0 z M 80.580078,780.06445 l 325.027342,0 0,-65.00586 -325.027342,0 0,65.00586 z m 520.042972,-130.01367 325.02734,0 0,-65.0039 -325.02734,0 0,65.0039 z M 80.580078,455.04102 c -35.752808,0 -65.005859,-29.25489 -65.005859,-65.00782 l 0,-325.02539 C 15.574219,29.25488 44.82727,0 80.580078,0 L 405.60742,0 c 35.75281,0 65.00586,29.25488 65.00586,65.00781 l 0,325.02539 c 0,35.75293 -29.25305,65.00782 -65.00586,65.00782 l -325.027342,0 z m 520.042972,0 325.02734,0 0,-65.00782 -325.02734,0 0,65.00782 z M 210.5918,390.0332 l 65.0039,0 0,-130.01172 130.01172,0 0,-65.00781 -130.01172,0 0,-130.00586 -65.0039,0 0,130.00586 -130.011722,0 0,65.00781 130.011722,0 0,130.01172 z" />
      <glyph
         glyph-name="glyph 5"
         id="glyph5203"
         unicode="e"
         d="m 115.45703,845.78711 c -49.796007,0 -90.537108,-40.73945 -90.537108,-90.53516 l 0,-543.22851 c 0,-49.79571 40.741101,-90.53711 90.537108,-90.53711 l 784.66016,0 c 49.79601,0 90.53711,40.7414 90.53711,90.53711 l 0,543.22851 c 0,49.79571 -40.7411,90.53516 -90.53711,90.53516 l -784.66016,0 z m 0,-60.35742 784.66016,0 c 16.35684,0 30.17969,-13.82262 30.17969,-30.17774 l 0,-90.54101 -845.017583,0 0,90.54101 c 0,16.35512 13.8209,30.17774 30.177733,30.17774 z m -30.177733,-301.79297 845.017583,0 0,-271.61328 c 0,-16.35713 -13.82285,-30.17969 -30.17969,-30.17969 l -784.66016,0 c -16.356833,0 -30.177733,13.82256 -30.177733,30.17969 l 0,271.61328 z m 60.357423,-120.7168 0,-120.7168 60.35937,0 0,120.7168 -60.35937,0 z m 120.7168,0 0,-120.7168 60.35937,0 0,120.7168 -60.35937,0 z m 120.71679,0 0,-120.7168 60.35938,0 0,120.7168 -60.35938,0 z" />
      <glyph
         glyph-name="glyph 6"
         id="glyph5226"
         unicode="f"
         d="M 36.894531,865.05859 C 19.778743,865.05859 6,851.21806 6,834.16406 c 0,-17.054 13.840532,-30.89648 30.894531,-30.89648 l 64.199219,0 38.37305,-164.11328 53.69531,-268.41407 c 0,-2.22443 1.04971,-4.14009 1.29687,-6.30273 l -31.45117,-141.5 c -2.03907,-9.1449 0.18466,-18.72246 6.05469,-26.01367 5.87004,-7.35299 14.70755,-11.55469 24.09961,-11.55469 l 700.94336,0 c 17.054,0 30.89453,13.84249 30.89453,30.89648 0,17.054 -13.84053,30.89454 -30.89453,30.89454 l -662.38672,0 14.15039,63.64257 c 3.08949,-0.49432 5.86895,-1.85351 9.08203,-1.85351 l 563.21485,0 c 34.108,0 54.68304,6.73451 71.11914,46.3418 l 100.34765,307.83789 c 17.42479,55.17834 -20.8224,78.34961 -54.99219,78.34961 l -741.47851,0 c -4.81961,0 -9.02254,-1.66832 -13.5332,-2.71875 L 155.6543,841.20703 c -3.27487,13.96451 -15.69477,23.85156 -30.0918,23.85156 l -88.667969,0 z m 157.501949,-185.36914 735.60938,0 -98.61719,-302.70898 c -1.17401,-2.65697 -2.16281,-4.5735 -2.90429,-5.87109 -2.03906,-0.18538 -5.25159,-0.36915 -10.31836,-0.36915 l -563.21485,0 0,6.11719 -1.17383,5.99219 -59.38086,296.83984 z m 58.75,-556.13672 a 61.78985,61.78985 0 0 1 -59.98437,-61.76171 61.78985,61.78985 0 0 1 123.57812,0 61.78985,61.78985 0 0 1 -63.59375,61.76171 z m 556.10938,0 a 61.78985,61.78985 0 0 1 -59.98633,-61.76171 61.79004,61.79004 0 1 1 123.58008,0 61.78985,61.78985 0 0 1 -63.59375,61.76171 z" />
      <glyph
         glyph-name="glyph 7"
         id="glyph5256"
         unicode="g"
         d="M 501.20898,983.58008 C 229.61754,983.58008 9.4179687,763.38245 9.4179688,491.79102 9.4179688,220.19958 229.61754,0 501.20898,0 772.80041,0 993,220.19958 993,491.79102 993,763.38245 772.80041,983.58008 501.20898,983.58008 Z m 0,-61.47266 c 237.28903,0 430.31641,-193.02737 430.31641,-430.3164 0,-237.28903 -193.08886,-430.31836 -430.31641,-430.31836 -237.28903,0 -430.316402,193.02933 -430.316402,430.31836 0,237.28903 193.027372,430.3164 430.316402,430.3164 z M 692.47656,694.42969 c -13.8094,-0.20772 -27.28636,-7.06131 -35.43164,-19.50977 l -207.53515,-317.14258 -99.21875,91.8418 c -17.45858,16.10615 -44.69176,15.06013 -60.85938,-2.39844 -16.16762,-17.45857 -15.06013,-44.62925 2.39844,-60.79687 L 428.97656,259.54297 c 0.49179,-0.43031 1.10782,-0.55406 1.59961,-0.98438 1.22948,-0.98358 1.96686,-2.3357 3.25781,-3.25781 1.84421,-1.22948 3.93518,-1.4753 5.90235,-2.33594 2.336,-1.10653 4.6094,-2.15191 7.06836,-2.82812 2.39748,-0.61474 4.7344,-0.923 7.19336,-1.10742 3.50401,-0.36885 6.88364,-0.36875 10.32617,0.12304 1.4139,0.2459 2.76775,0.61553 4.18164,0.98438 4.2417,1.04505 8.17598,2.705 12.04883,5.04101 0.67621,0.43032 1.22807,0.92126 1.90429,1.35157 2.52042,1.72127 5.22537,3.0136 7.37696,5.34961 1.53684,1.65979 2.21389,3.81008 3.44336,5.65429 0.0615,0.0615 0.18359,0.12408 0.18359,0.18555 l 235.56836,360.05078 c 13.03245,19.91752 7.43808,46.59841 -12.41797,59.63086 -7.44602,4.88717 -15.85108,7.15393 -24.13672,7.0293 z" />
      <glyph
         glyph-name="glyph 8"
         id="glyph5433"
         unicode="h"
         d="M 498.08789,980.17578 C 227.43673,980.17578 8,760.73904 8,490.08789 8,219.43673 227.43673,0 498.08789,0 768.739,0 988.17578,219.43673 988.17578,490.08789 c 0,270.65115 -219.43678,490.08789 -490.08789,490.08789 z M 688.61133,691.97852 c 8.25513,0.12988 16.64662,-2.09229 24.08984,-6.93946 19.84858,-12.98734 25.39164,-39.59941 12.4043,-59.38672 L 490.35156,266.85938 c -0.0613,-0.0613 -0.16015,-0.13796 -0.16015,-0.19922 -1.22522,-1.83783 -1.89817,-3.90774 -3.42969,-5.62305 -2.14414,-2.32791 -4.92847,-3.56739 -7.37891,-5.34375 -0.61261,-0.42903 -1.20113,-0.88758 -1.875,-1.31641 -3.79819,-2.38918 -7.71563,-3.98396 -12.0039,-5.02539 -1.409,-0.36757 -2.71724,-0.75299 -4.1875,-0.99804 -3.49188,-0.49009 -6.79914,-0.4867 -10.29102,-0.11914 -2.45044,0.18379 -4.74949,0.50457 -7.13867,1.11718 -2.45045,0.67387 -4.73263,1.68832 -7.06055,2.79102 -1.96035,0.91892 -4.0235,1.18955 -5.86133,2.35351 -1.34774,0.85766 -2.10752,2.18903 -3.27148,3.23047 -0.49009,0.42882 -1.10562,0.56922 -1.5957,0.99805 L 289.41797,385.07422 c -17.39812,16.11164 -18.44297,43.28618 -2.39258,60.62305 16.05038,17.33686 43.22492,18.4039 60.62305,2.35351 l 98.91015,-91.49219 206.75586,316.03711 c 8.11708,12.36716 21.53827,19.16617 35.29688,19.38282 z" />
      <glyph
         glyph-name="glyph 9"
         id="glyph5459"
         unicode="i"
         d="m 840.10547,850.27344 c -8.20494,0 -16.40822,-3.12891 -22.66797,-9.38867 L 376.78711,400.23047 189.36914,587.64453 c -12.51494,12.51951 -32.81871,12.51951 -45.33594,0 L 38.253906,481.86133 c -12.519517,-12.51723 -12.519517,-32.81838 0,-45.33789 L 354.12109,120.6582 c 6.25975,-6.26204 14.46474,-9.39062 22.66797,-9.39062 8.20551,0 16.41049,3.12858 22.66797,9.39062 l 569.09961,569.10742 c 6.01311,6.01083 9.38867,14.16785 9.38867,22.66797 0.002,8.50468 -3.37556,16.65486 -9.38867,22.66797 L 862.77539,840.88477 c -6.25975,6.25976 -14.46498,9.38867 -22.66992,9.38867 z" />
      <glyph
         glyph-name="glyph 10"
         id="glyph5463"
         unicode="j"
         d="m 81.910156,736.06445 c -16.407353,0 -32.814711,-6.25025 -45.3125,-18.74804 -24.995577,-24.99558 -24.995577,-65.62942 0,-90.625 L 452.29297,210.99609 c 12.56188,-12.56188 29.09654,-18.84302 45.50391,-18.71484 16.53552,0 32.94397,6.15296 45.50585,18.71484 l 415.69532,415.69532 c 24.99557,24.99558 24.99557,65.62942 0,90.625 -24.99558,24.99558 -65.62943,24.99558 -90.625,0 L 497.79688,346.74219 127.22266,717.31641 c -12.49779,12.49779 -28.905151,18.74804 -45.312504,18.74804 z" />
      <glyph
         glyph-name="glyph 11"
         id="glyph5494"
         unicode="k"
         d="m 913.68554,192.27933 c 16.40736,0 32.81472,6.25025 45.3125,18.74804 24.99558,24.99558 24.99558,65.62942 0,90.625 L 543.30273,717.34769 c -12.56188,12.56188 -29.09654,18.84302 -45.50391,18.71484 -16.53552,0 -32.94397,-6.15296 -45.50585,-18.71484 L 36.597651,301.65237 c -24.99557,-24.99558 -24.99557,-65.62942 0,-90.625 24.99558,-24.99558 65.629429,-24.99558 90.624999,0 L 497.79882,581.60159 868.37304,211.02737 c 12.49779,-12.49779 28.90515,-18.74804 45.3125,-18.74804 z" />
      <glyph
         glyph-name="glyph 12"
         id="glyph5546"
         unicode="l"
         d="m 94.849609,971.36523 c -16.700248,0 -33.400202,-6.36114 -46.121093,-19.08203 -25.441783,-25.44178 -25.441783,-66.8004 0,-92.24218 L 409.87109,498.89844 48.728516,137.75586 c -25.441783,-25.44179 -25.441783,-66.80235 0,-92.24414 25.441783,-25.44178 66.802364,-25.44178 92.244144,0 L 502.11523,406.65625 863.25781,45.51172 c 25.44179,-25.44178 66.8004,-25.44178 92.24219,0 25.44178,25.44179 25.44178,66.80235 0,92.24414 L 594.35742,498.89844 955.5,860.04102 c 25.44178,25.44178 25.44178,66.8004 0,92.24218 -25.44179,25.44179 -66.8004,25.44179 -92.24219,0 L 502.11523,591.14062 140.97266,952.2832 c -12.72089,12.72089 -29.4228,19.08203 -46.123051,19.08203 z" />
      <glyph
         glyph-name="glyph 13"
         id="glyph5549"
         unicode="m"
         d="m 501.30469,949.10937 c -262.00979,0 -474.441409,-212.43161 -474.441409,-474.4414 0,-262.00979 212.431619,-474.43945 474.441409,-474.43945 262.00979,0 474.43945,212.42966 474.43945,474.43945 0,262.00979 -212.42966,474.4414 -474.43945,474.4414 z m 0,-59.30468 c 228.91756,0 415.13476,-186.21915 415.13476,-415.13672 0,-228.91756 -186.2172,-415.13477 -415.13476,-415.13477 -228.91756,0 -415.136721,186.21721 -415.136721,415.13477 0,228.91757 186.219161,415.13672 415.136721,415.13672 z M 354.87891,715.56641 c -50.11279,0 -90.79493,-40.62479 -90.79493,-90.79688 0,-50.17209 40.68214,-90.79492 90.79493,-90.79492 50.11278,0 90.79687,40.68214 90.79687,90.79492 0,50.17209 -40.68409,90.79688 -90.79687,90.79688 z m 324.36914,-33.31446 c -7.59105,0 -15.18065,-2.89158 -20.96289,-8.67383 L 302.45312,317.74805 c -11.56448,-11.56449 -11.56448,-30.3652 0,-41.92969 5.7526,-5.8119 13.34451,-8.7168 20.93555,-8.7168 7.59105,0 15.18224,2.90562 20.99414,8.65821 l 355.83008,355.83007 c 11.56448,11.6238 11.56448,30.36449 0,41.98828 -5.78224,5.78225 -13.37379,8.67383 -20.96484,8.67383 z M 354.87891,656.26172 c 17.37638,0 31.49218,-14.1158 31.49218,-31.49219 0,-17.37638 -14.1158,-31.49023 -31.49218,-31.49023 -17.37639,0 -31.49024,14.11385 -31.49024,31.49023 0,17.37639 14.11385,31.49219 31.49024,31.49219 z m 292.84961,-237.2207 c -50.17209,0 -90.79688,-40.6841 -90.79688,-90.79688 0,-50.11278 40.62479,-90.79492 90.79688,-90.79492 50.17209,0 90.79492,40.68214 90.79492,90.79492 0,50.11278 -40.68214,90.79688 -90.79492,90.79688 z m 0,-59.30469 c 17.37639,0 31.49023,-14.1158 31.49023,-31.49219 0,-17.37638 -14.11384,-31.49023 -31.49023,-31.49023 -17.37638,0 -31.49219,14.11385 -31.49219,31.49023 0,17.37639 14.11581,31.49219 31.49219,31.49219 z" />
      <glyph
         glyph-name="glyph 14"
         id="glyph5600"
         unicode="n"
         d="m 829.82617,975.54297 c -33.31095,0 -64.02019,-11.00152 -88.75195,-29.58008 L 681.9082,886.79492 888.99414,679.70898 948.16016,738.875 c 18.57848,24.73 29.58398,55.44073 29.58398,88.75 0,81.68257 -66.23743,147.91797 -147.91797,147.91797 z M 637.53125,842.41602 90.232422,295.11914 31.066406,28.86523 297.31836,88.03516 844.61719,635.33594 637.53125,842.41602 Z m 4.08398,-152 51.00196,-51.00196 -414.17188,-414.16992 -51.00195,51.00195 414.17187,414.16993 z" />
      <glyph
         glyph-name="glyph 15"
         id="glyph5625"
         unicode="o"
         d="m 79.771484,857.20703 c -32.964369,0 -59.71875,-26.75438 -59.71875,-59.71875 l 0,-597.17969 c 0,-32.96437 26.754381,-59.71875 59.71875,-59.71875 l 836.052736,0 c 32.96437,0 59.7168,26.75438 59.7168,59.71875 l 0,597.17969 c 0,32.96437 -26.75243,59.71875 -59.7168,59.71875 l -836.052736,0 z m 0,-59.71875 836.052736,0 0,-96.62305 -1.25391,1.79102 L 497.67773,415.5918 79.771484,699.73047 l 0,97.75781 z m 836.052736,-166.49219 0,-388.46679 -230.09375,230.09375 230.09375,158.37304 z M 79.771484,627.5918 308.96875,471.78711 79.771484,242.5293 l 0,385.0625 z M 635.74609,438.22461 873.60352,200.30859 l -751.61133,0 237.25976,237.25977 138.66407,-94.23438 137.83007,94.89063 z" />
      <glyph
         glyph-name="glyph 16"
         id="glyph5636"
         unicode="p"
         d="m 653.17383,914.07227 c -42.77348,0 -77.48828,-34.71481 -77.48828,-77.48829 l -503.671878,0 c -21.386739,0 -38.744141,-17.3574 -38.744141,-38.74414 0,-21.38674 17.357402,-38.74414 38.744141,-38.74414 l 503.671878,0 c 0,-42.77348 34.7148,-77.48828 77.48828,-77.48828 l 77.48828,0 c 42.77348,0 77.48828,34.7148 77.48828,77.48828 l 116.23242,0 c 21.38674,0 38.74414,17.3574 38.74414,38.74414 0,21.38674 -17.3574,38.74414 -38.74414,38.74414 l -116.23242,0 c 0,42.77348 -34.7148,77.48829 -77.48828,77.48829 l -77.48828,0 z m 0,-77.48829 77.48828,0 0,-77.48828 -77.48828,0 0,77.48828 z M 265.73242,604.11914 c -42.77348,0 -77.48828,-34.7148 -77.48828,-77.48828 l -116.230468,0 c -21.386739,0 -38.744141,-17.35741 -38.744141,-38.74414 0,-21.38674 17.357402,-38.74414 38.744141,-38.74414 l 116.230468,0 c 0,-42.77347 34.7148,-77.48828 77.48828,-77.48828 l 77.48828,0 c 42.77348,0 77.48828,34.71481 77.48828,77.48828 l 503.67383,0 c 21.38674,0 38.74414,17.3574 38.74414,38.74414 0,21.38673 -17.3574,38.74414 -38.74414,38.74414 l -503.67383,0 c 0,42.77348 -34.7148,77.48828 -77.48828,77.48828 l -77.48828,0 z m 0,-77.48828 77.48828,0 0,-77.48828 -77.48828,0 0,77.48828 z M 498.19727,294.16602 c -42.77348,0 -77.48829,-34.71481 -77.48829,-77.48829 l -348.695308,0 c -21.386739,0 -38.744141,-17.3574 -38.744141,-38.74414 0,-21.38674 17.357402,-38.74414 38.744141,-38.74414 l 348.695308,0 c 0,-42.77348 34.71481,-77.48828 77.48829,-77.48828 l 77.48828,0 c 42.77347,0 77.48828,34.7148 77.48828,77.48828 l 271.20898,0 c 21.38674,0 38.74414,17.3574 38.74414,38.74414 0,21.38674 -17.3574,38.74414 -38.74414,38.74414 l -271.20898,0 c 0,42.77348 -34.71481,77.48829 -77.48828,77.48829 l -77.48828,0 z m 0,-77.48829 77.48828,0 0,-77.48828 -77.48828,0 0,77.48828 z" />
      <glyph
         glyph-name="glyph 17"
         id="glyph5638"
         unicode="q"
         d="m 500.54883,977.74414 c -157.27029,0 -285.22461,-127.94932 -285.22461,-285.22461 l 0,-162.89844 c 0,-1.85114 -2.28364,-4.9699 -4.07813,-5.5664 -15.42395,-5.14354 -27.95122,-9.60108 -39.41797,-14.02149 -13.67445,-5.27184 -23.98828,-20.42421 -23.98828,-35.25 l 0,-374.29687 c 0,-14.72415 10.24813,-29.89025 23.83594,-35.27539 105.13178,-41.65982 215.77989,-62.7793 328.8711,-62.7793 113.09118,0 223.7382,21.12338 328.875,62.7832 13.5828,5.38347 23.82617,20.54734 23.82617,35.27149 l 0,374.29687 c 0,14.82579 -10.31303,29.97903 -23.99414,35.25586 -11.47174,4.42041 -23.99592,8.87795 -39.40821,14.02149 -1.78949,0.5965 -4.07422,3.71721 -4.07422,5.56836 l 0,162.89648 c -0.008,157.27029 -127.95236,285.21875 -285.22265,285.21875 z m -0.006,-98.07226 c 103.19233,0.002 187.1543,-83.95083 187.1543,-187.14649 l 0,-140.55078 c -61.37256,13.20625 -124.33784,19.89344 -187.125,19.89844 -62.75882,0 -125.70827,-6.69019 -187.17579,-19.88477 l 0,140.53711 c 0,103.19566 83.9525,187.14647 187.14649,187.14649 z m 0,-441.20508 c 42.89781,0 77.67969,-34.74218 77.67969,-77.68164 0,-28.45025 -16.043,-52.27061 -38.83985,-65.77344 l 0,-128.43164 c 0,-21.47057 -17.3729,-38.83985 -38.84179,-38.83985 -21.47057,0 -38.83985,17.36928 -38.83985,38.83985 l 0,128.43164 c -22.79518,13.50283 -38.84181,37.32319 -38.84179,65.77344 0,42.93613 34.78246,77.68164 77.68359,77.68164 z" />
      <glyph
         glyph-name="glyph 18"
         id="glyph5764"
         unicode="r"
         d="m 80.011719,854.28906 0,-115.64062 855.394531,0 0,115.64062 -855.394531,0 z m 0,-289.10351 0,-115.64258 855.394531,0 0,115.64258 -855.394531,0 z m 0,-289.10352 0,-115.64258 855.394531,0 0,115.64258 -855.394531,0 z" />
      <glyph
         glyph-name="glyph 19"
         id="glyph5766"
         unicode="s"
         d="M 390.50586,937.03906 C 188.66629,937.03696 24.458984,772.82803 24.458984,570.98633 c 0,-201.8417 164.207306,-366.04688 366.046876,-366.04688 60.56737,0 117.73861,14.79856 168.10352,40.94922 -15.67427,18.46217 -31.85311,37.57177 -45.28516,53.58789 -37.47002,-17.02044 -79.05697,-26.49804 -122.81836,-26.49804 -164.32284,0 -298.011719,133.6848 -298.011719,298.00976 0,164.32496 133.688879,298.01367 298.011719,298.01367 164.32496,0 298.01367,-133.68871 298.01367,-298.01367 0,-72.12666 -25.76298,-138.34611 -68.5625,-189.95312 14.73788,-16.19023 32.17419,-34.45067 47.15625,-49.54102 55.69651,64.24069 89.43945,148.00291 89.43945,239.49414 0,201.8417 -164.20517,366.05078 -366.04687,366.05078 z m 2.85156,-130.32226 c -13.89068,0 -25.15427,-11.26361 -25.1543,-25.1543 l 0,-26.0957 c -57.1807,-9.14933 -93.02929,-43.51634 -93.02929,-91.22071 0,-66.91819 52.6716,-90.97634 93.02929,-104.21093 l 0,-114.12305 c -24.60489,4.47594 -48.35405,16.02866 -64.25976,31.90039 -9.82667,9.80756 -25.74483,9.79903 -35.55664,-0.0234 l -2.17578,-2.17383 c -4.76682,-4.76895 -7.41849,-11.2528 -7.36328,-17.99218 0.0552,-6.7415 2.81494,-13.1791 7.6582,-17.86524 26.34814,-25.50518 63.86187,-42.92632 101.69922,-47.93945 l 0,-31.40625 c -0.002,-13.89068 11.26166,-25.15234 25.15234,-25.15234 l 3.21875,0 c 13.89068,0 25.1543,11.26148 25.1543,25.15429 l 0,31.98047 c 61.69273,9.30221 100.43164,46.56836 100.43164,98.57031 0.52658,70.69342 -53.66789,94.10937 -100.43164,108.73047 l 0,103.26758 c 17.24764,-2.58195 34.11936,-8.07464 46.34961,-15.4043 11.75888,-7.04938 26.99966,-3.38293 34.26562,8.24219 l 1.43164,2.29297 c 3.56929,5.7117 4.69948,12.61561 3.13672,19.16602 -1.56063,6.55253 -5.68656,12.20315 -11.44922,15.6875 -20.24362,12.243 -47.14205,20.83084 -73.73437,23.91601 l 0,24.69922 c 0,13.89069 -11.26362,25.1543 -25.1543,25.1543 l -3.21875,0 z m -25.1543,-105.85352 0,-83.58789 c -29.64139,12.35766 -39.5,25.24093 -39.5,46.96875 0,22.37117 20.99964,32.25362 39.5,36.61914 z m 53.52735,-157.72656 c 31.96641,-11.66546 47.14423,-24.27226 46.9043,-51.79883 l 0,-0.2168 c 0,-28.09137 -25.63512,-39.55172 -46.9043,-44.21875 l 0,96.23438 z M 531.68555,415.40039 c -6.84923,0.13118 -13.61897,-2.0533 -19.85938,-7.6875 -26.87047,-26.1167 12.4865,-68.7875 13.50781,-70.02539 L 683.22852,144.41797 c -0.63911,-0.85782 -1.35458,-1.59688 -2.16993,-2.24024 -15.14131,-11.89265 -59.32809,9.95663 -77.16601,21.75586 -16.307,10.77366 -43.76226,10.69148 -57.6211,-0.17773 -5.5482,-4.3634 -8.61819,-10.2887 -8.65429,-16.67774 -0.0446,-9.20663 5.97742,-18.72755 17.88281,-28.26757 0.13377,-0.11041 0.37478,-0.31407 0.71875,-0.61133 17.58949,-15.07762 65.31971,-52.62233 128.34375,-75.73242 40.40019,-14.81856 79.76125,-20.92276 117.00195,-18.15821 46.19045,3.44188 89.22884,20.58489 127.92188,50.96094 41.50219,32.58642 57.52438,76.17327 47.61914,129.54688 -9.7566,52.58585 -43.22447,101.20443 -62.30664,125.50781 -25.88525,32.97711 -58.74289,46.22352 -97.65039,39.36523 -27.78562,-4.89423 -57.98073,-20.02217 -89.75391,-44.96679 -22.44974,-17.63196 -39.40511,-35.26735 -46.90039,-43.48243 -18.84436,16.2327 -71.45299,70.44458 -97.28516,101.01172 -9.72528,11.51364 -30.97575,32.7549 -51.52343,33.14844 z" />
      <glyph
         glyph-name="glyph 20"
         id="glyph5768"
         unicode="t"
         d="m 972.00724,64.82671 -267.1612,267.16121 c 60.98245,68.72625 97.76551,159.71593 97.76551,259.41739 -0.96797,217.79446 -176.17151,392.99801 -393.96597,392.99801 -217.79446,0 -392.998002,-175.20355 -392.998002,-392.99801 0,-217.79445 175.203542,-392.998 392.998002,-392.998 96.79754,0 184.88329,34.84712 252.64157,91.95766 l 267.1612,-267.1612 c 5.80785,-5.80785 18.39153,-5.80785 24.19939,-5.80785 5.80785,0 18.39153,0 18.39153,5.80785 12.58368,11.61571 12.58368,30.00724 0.96797,41.62294 z M 75.662051,591.40531 c 0,181.97937 151.004159,332.98353 332.983529,332.98353 181.97937,0 332.98353,-151.97213 332.98353,-332.98353 0,-181.01139 -151.00416,-332.98352 -332.98353,-332.98352 -181.97937,0 -332.983529,151.00416 -332.983529,332.98352 z" />
      <glyph
         glyph-name="glyph 21"
         id="glyph5770"
         unicode="u"
         d="m 423.45703,739.88281 c -17.08206,0 -33.76825,-13.84188 -37.28125,-30.92187 L 309.40625,335.56836 c -3.5047,-17.07792 7.50081,-30.92383 24.56836,-30.92383 l 540.09375,0 c 17.08206,0 33.76849,13.84384 37.27734,30.92383 l 76.75782,373.39258 c 3.51714,17.07999 -7.4824,30.92187 -24.56446,30.92187 l -540.08203,0 z M 106.97656,702.93359 c -12.308947,0 -22.296873,-9.97976 -22.296872,-22.29492 0,-12.31102 9.985852,-22.29492 22.296872,-22.29492 l 232.69141,0 c 12.32139,0 22.30078,9.9839 22.30078,22.29492 0,12.31516 -9.97732,22.29492 -22.30078,22.29492 l -232.69141,0 z m 357.38867,-27.40625 c 5.26223,0 10.24113,-1.31701 14.39454,-3.81445 L 657.38281,564.25195 880.20312,671.71289 c 5.16484,2.49537 10.68627,3.8125 15.96094,3.8125 11.90894,0 21.4591,-6.51906 24.91406,-17 5.17104,-15.66443 -4.76781,-35.22829 -22.15039,-43.60351 L 659.24414,499.33008 c -10.33795,-4.9928 -22.11405,-4.9928 -30.4043,0 L 436.6875,614.92188 c -13.93384,8.37729 -15.83657,27.93163 -4.23438,43.58984 7.76797,10.49131 19.99902,17.01562 31.91211,17.01562 z M 169.39062,602.79297 c -12.30895,0 -22.2832,-9.97597 -22.2832,-22.28906 0,-12.30895 9.97426,-22.29297 22.2832,-22.29297 l 139.07813,0 c 12.30895,0 22.2832,9.98195 22.2832,22.29297 0,12.31309 -9.97425,22.28906 -22.2832,22.28906 l -139.07813,0 z M 44.556641,500.05859 c -12.317237,0 -22.300782,-9.97999 -22.300782,-22.29101 0,-12.31517 9.981472,-22.29492 22.300782,-22.29492 l 232.697269,0 c 12.30688,0 22.29101,9.97561 22.29101,22.29492 0,12.31102 -9.98413,22.29101 -22.29101,22.29101 l -232.697269,0 z M 171.73047,399.92773 c -12.31723,0 -22.30078,-9.97756 -22.30078,-22.29687 0,-12.30688 9.98147,-22.29492 22.30078,-22.29492 l 74.30664,0 c 12.32138,0 22.30078,9.9839 22.30078,22.29492 -0.002,12.31516 -9.9794,22.29687 -22.30078,22.29687 l -74.30664,0 z" />
      <glyph
         glyph-name="glyph 22"
         id="glyph6613"
         unicode="v"
         d="M 501.31641,963.98047 351.72656,658.95312 15.648438,609.25781 259.51953,372.73047 202.92969,37.74414 503.24023,196.58789 804.34375,39.25195 746.07422,373.94922 988.75781,611.69727 652.43359,659.70703 501.31641,963.98047 Z" />
      <glyph
         glyph-name="glyph 23"
         id="glyph6615"
         unicode="x"
         d="m 86.240234,876.32812 c -32.769218,0 -59.580078,-26.81085 -59.580078,-59.58007 l 0,-476.64258 59.580078,-59.58008 75.548826,0 c -10.15842,-17.51664 -15.96679,-37.86302 -15.96679,-59.58008 0,-65.80654 53.35365,-119.16211 119.16015,-119.16211 65.80651,0 119.16016,53.35557 119.16016,119.16211 0,21.71706 -5.83813,42.06344 -15.9668,59.58008 l 329.86719,0 c -10.15856,-17.51664 -15.99805,-37.86302 -15.99805,-59.58008 0,-65.80654 53.35351,-119.16211 119.16016,-119.16211 65.80664,0 119.16211,53.35557 119.16211,119.16211 0,21.71706 -5.83949,42.06344 -15.99805,59.58008 l 75.57813,0 0,178.74023 -119.16016,238.32227 -178.74219,0 0,119.16016 c 0,32.76922 -26.81086,59.58007 -59.58008,59.58007 l -536.224606,0 z m 595.804686,-238.32031 123.50977,0 89.37109,-178.74219 -212.88086,0 0,178.74219 z" />
      <glyph
         glyph-name="glyph 24"
         id="glyph6617"
         unicode="z"
         d="m 497.26367,991.16406 c -81.91062,0 -144.76211,-23.9629 -186.83594,-71.24219 -61.49749,-69.11208 -58.20716,-164.76825 -56.46484,-187.03125 -23.94078,-12.79854 -41.2344,-40.65318 -36.33008,-100.27929 6.47455,-78.57654 52.09676,-105.95899 95.2461,-105.95899 8.38895,0 15.78904,1.80655 22.32812,5.14063 24.69364,-15.98204 64.33603,-29.83481 127.85547,-32.41602 6.23794,-9.37843 19.27288,-15.81054 34.41602,-15.81054 21.12296,0 38.26757,12.60636 38.26757,28.1582 0,15.55183 -17.14461,28.15625 -38.26757,28.15625 -17.22962,0 -31.79114,-8.36708 -36.5879,-19.875 -41.66514,1.97893 -71.49986,9.05571 -92.8164,17.98242 -29.10322,39.12694 -42.9336,105.55025 -42.9336,143.49414 0,14.04612 0.4502,27.10263 1.26758,39.25586 134.56744,-4.51713 214.56483,49.88089 258.27344,97.13867 56.29203,-56.09845 76.31818,-132.02879 82.98633,-168.3164 -13.03515,-99.54892 -84.01983,-205.20703 -170.18945,-205.20703 -37.06197,0 -71.32774,19.55366 -99.37696,49.7539 -28.65151,5.97982 -52.50462,15.33637 -71.47656,28.02735 15.4873,-27.68355 34.71757,-52.4413 56.89453,-72.10157 L 306.51172,430.7168 C 201.34864,404.36688 128.4082,310.30366 128.4082,201.91406 l 0,-129.77148 c 0,-36.80385 28.9735,-67.30469 65.77735,-67.30469 l 604.2207,0 c 36.80385,0 66.72461,30.50084 66.72461,67.30469 l 0,129.77148 c 0.0215,108.36808 -73.39357,202.47438 -178.55664,228.75977 l -76.83399,19.23047 c 32.41578,28.80208 58.85184,68.42259 76.55469,111.85156 24.77968,5.48509 47.51701,26.11352 51.25977,71.56445 3.52766,42.80518 -9.55124,61.88457 -27.10352,70.20899 -0.2151,5.09791 -0.45081,10.08985 -0.75195,14.97265 22.56414,125.01694 -66.74753,168.70256 -73.69531,170.81055 -11.63699,17.68134 -90.4927,125.212 -233.55664,37.92383 -20.95088,-12.77703 -54.18382,-37.94427 -71.92969,-63.28321 -21.33806,-26.80163 -36.84589,-65.5852 -43.21289,-121.64062 -4.40958,-0.47323 -8.79948,-1.16092 -13.14453,-2.15039 -1.16154,27.51147 0.36621,108.58329 51.73242,166.23047 37.98691,42.61159 95.67688,64.22851 171.39258,64.22851 75.84475,0 134.71933,-21.79037 174.98632,-64.72461 66.14368,-70.55326 60.16219,-175.84443 60.09766,-176.89843 -0.38719,-5.63566 3.91515,-10.5191 9.5293,-10.88477 0.25812,-0.0215 0.45281,-0.0215 0.71094,-0.0215 5.33451,0 9.82961,4.15171 10.21679,9.57226 0.32265,4.66769 6.71149,114.97201 -65.49805,192.15039 -44.28936,47.34382 -108.23988,71.34961 -190.06445,71.34961 z M 429.20703,419.23047 c 12.54042,-6.02284 25.68291,-10.49686 39.29883,-13.12109 l -30.58789,-78.23243 -100.04297,68.48828 91.33203,22.86524 z m 134.93164,-0.15039 90.62305,-22.71485 -100.02149,-68.46679 -30.45898,77.91015 c 13.76649,2.58121 27.0804,7.09808 39.85742,13.27149 z m -74.50976,-15.53125 c 2.60272,-0.12906 11.65785,-0.17202 13.57226,-0.0859 l 9.57227,-24.54297 -32.73828,0 9.59375,24.62891 z M 311.76172,389.67578 438.06836,303.09766 c 1.29061,-13.22874 12.30339,-24.06985 26.43555,-24.45704 l -57.51758,-231.68554 -115.12305,0 0,54.48437 c 0,5.67867 -4.53812,10.25977 -10.2168,10.25977 -5.65716,0 -10.21679,-4.5811 -10.21679,-10.25977 l 0,-54.48437 -77.22266,0 c -14.19669,0 -24.92969,11.01228 -24.92969,25.20898 l 0,129.72852 c 0,87.93345 58.12161,164.46621 142.48438,187.7832 z m 369.54297,-0.0215 c 84.36277,-23.29548 142.93554,-99.84978 142.93554,-187.76172 l 0,-129.72852 0.043,0 0,-0.02148 c 0,-14.1967 -11.68026,-25.20899 -25.87695,-25.20899 l -77.54492,0 0,54.48438 c 0,5.67867 -4.53813,10.25976 -10.2168,10.25976 -5.67868,0 -10.23828,-4.58109 -10.23828,-10.25976 l 0,-54.48438 -114.92969,0 -57.51758,231.68555 c 14.02461,0.36567 24.99437,11.07808 26.43555,24.15625 l 126.91016,86.87891 z" />
      <glyph
         glyph-name="glyph 25"
         id="glyph6619"
         unicode="w"
         d="m 437.25391,962.32617 c -175.02424,0 -175.02539,-117.52953 -175.02539,-262.53711 0,-90.3125 52.42052,-180.59603 116.68359,-216.79687 l 0,-48.10157 C 181.01804,418.70088 28.863281,321.47397 28.863281,203.91602 l 408.390629,0 0,58.3125 291.70703,0 0,104.95703 C 667.67329,402.91966 586.46245,427.4521 495.5957,434.89062 l 0,48.10157 c 64.26307,36.23001 116.68164,126.51354 116.68164,216.79687 0,145.00758 8.1e-4,262.53711 -175.02343,262.53711 z M 903.98438,408.08203 641.44922,145.54688 553.93555,233.05859 495.5957,174.7168 641.44922,28.86328 l 320.87695,320.87695 -58.34179,58.3418 z" />
      <glyph
         glyph-name="glyph 26"
         id="glyph6747"
         unicode="1"
         d="m 495.5957,933.69141 c -250.06685,0 -453.515622,-203.46636 -453.515622,-453.53321 0,-250.06684 203.448772,-453.5332 453.515622,-453.5332 250.04858,0 453.51368,203.46636 453.51368,453.5332 0,250.06685 -203.42857,453.53321 -453.51368,453.53321 z m 0.0723,-91.41211 c 199.721,0 362.17578,-162.47304 362.17578,-362.17578 -0.0731,-96.87373 -38.52623,-184.79619 -100.74609,-249.90235 l 0,17.88281 c 0,61.85451 -71.46419,84.41534 -109.7168,100.78321 -13.84693,5.90048 -39.95194,18.46844 -66.73242,31.5664 -9.04252,4.42079 -17.18989,16.20402 -18.21289,26.26953 l -2.95899,29.30079 c 20.49639,19.08977 38.96607,45.67053 42.08985,75.30078 l 4.62109,0 c 7.27055,0 14.12143,5.44361 15.19922,12.11133 l 7.25195,44.81054 c 0.96819,9.57229 -8.07504,15.38086 -15.40039,15.38086 0.20094,0.94992 0.36569,1.91888 0.45703,2.72266 0.93165,5.38898 1.49792,10.59414 1.86328,15.6543 0.45669,4.07369 0.8225,8.29417 1.02344,12.66015 0.76725,21.15402 -2.81299,39.65978 -8.75,50.01758 -6.02835,14.4863 -15.16262,28.55267 -27.87695,40.60937 -35.42111,33.53954 -76.50548,46.59988 -111.54297,19.63672 -23.85765,4.12851 -52.20938,-6.7762 -72.6875,-30.76172 -11.17984,-13.09796 -18.13956,-28.07826 -21.11719,-42.82031 -2.66709,-9.18867 -4.43852,-20.31313 -4.87695,-32.35156 -0.47496,-13.39024 0.8405,-25.64899 3.30664,-35.56836 -6.97827,-0.43843 -13.95703,-6.17428 -13.95703,-15.2168 l 7.23437,-44.81054 c 1.0778,-6.66772 7.92867,-12.11133 15.19922,-12.11133 l 4.14649,0 c 6.57638,-32.04158 23.60151,-58.34671 42.43554,-76.6875 l -2.84961,-28.33399 C 424.2231,396.19884 416.07446,384.45411 407.01367,379.97852 381.11004,367.33725 355.59018,355.16956 340.31836,348.86719 304.33095,334.0338 230.60352,309.93849 230.60352,248.08398 l 0,-13.99218 c -60.06427,64.686 -97.11133,151.0013 -97.11133,246.01172 0,199.70274 162.47304,362.17578 362.17578,362.17578 z" />
      <glyph
         glyph-name="glyph 27"
         id="glyph5857"
         unicode="2"
         d="m 571.44505,277.94109 0,57.24338 c 76.47706,43.08305 138.85971,150.55968 138.85971,258.00194 0,172.56604 0,312.43496 -208.28945,312.43496 -208.28919,0 -208.28919,-139.86892 -208.28919,-312.43496 0,-107.47662 62.38252,-214.91889 138.85958,-258.00194 l 0,-57.24338 C 197.07969,258.67389 16.006682,142.97008 16.006682,3.06927 l 972.017258,0 c 0,139.90081 -181.07299,255.639 -416.57889,274.87182 z" />
      <glyph
         glyph-name="glyph 28"
         id="glyph5859"
         unicode="3"
         d="m 595.51484,861.09424 61.47998,0 0,-61.47999 -61.47998,0 z m 122.95998,0 61.47999,0 0,-61.47999 -61.47999,0 z m -122.95998,-122.95999 61.47998,0 0,-61.48 -61.47998,0 z m 122.95998,0 61.47999,0 0,-61.48 -61.47999,0 z m -122.95998,-122.95999 61.47998,0 0,-61.48 -61.47998,0 z m 122.95998,0 61.47999,0 0,-61.48 -61.47999,0 z m -122.95998,-122.95999 61.47998,0 0,-61.48 -61.47998,0 z m 122.95998,0 61.47999,0 0,-61.48 -61.47999,0 z m -122.95998,-122.96 61.47998,0 0,-61.47999 -61.47998,0 z m 122.95998,0 61.47999,0 0,-61.47999 -61.47999,0 z m 122.95999,614.79997 -307.39997,0 c -33.93696,0 -61.47999,-27.54304 -61.47999,-61.48 l 0,-184.43999 -307.39995,0 c -33.93696,0 -61.48,-27.54304 -61.48,-61.48 l 0,-614.79996 c 0,-33.93695 27.54304,-61.47999 61.48,-61.47999 l 676.27991,0 c 33.93696,0 61.47999,27.54304 61.47999,61.47999 l 0,860.71995 c 0,33.93696 -27.54303,61.48 -61.47999,61.48 z M 349.59485,61.85429 l -61.47999,0 0,122.96 61.47999,0 0,-122.96 z m 61.48,0 0,122.96 0,61.47999 -61.48,0 -61.47999,0 -61.47997,0 0,-61.47999 0,-122.96 -61.47999,0 0,614.79996 307.39995,0 0,-614.79996 -61.48,0 z m 307.39997,0 -61.48,0 0,122.96 61.48,0 0,-122.96 z m 122.95999,0 -61.48,0 0,122.96 0,61.47999 -61.47999,0 -61.48,0 -61.47998,0 0,-184.43999 -61.48,0 0,614.79996 0,245.91999 307.39997,0 0,-860.71995 z m -614.79992,553.31997 61.47997,0 0,-61.48 -61.47997,0 z m 122.95996,0 61.48,0 0,-61.48 -61.48,0 z m -122.95996,-122.95999 61.47997,0 0,-61.48 -61.47997,0 z m 122.95996,0 61.48,0 0,-61.48 -61.48,0 z m -122.95996,-122.96 61.47997,0 0,-61.47999 -61.47997,0 z m 122.95996,0 61.48,0 0,-61.47999 -61.48,0 z" />
    </font>
</defs>
</svg>
